# Blender 4.2.2 LTS
# www.blender.org
mtllib box_fractured.mtl
o Cube_cell
v 1.000000 0.763610 1.000000
v 0.000568 1.762144 0.000867
v 1.000000 1.762685 1.000000
v 0.001245 1.762630 1.000000
v 0.001139 0.763610 1.000000
v 0.000575 0.763610 0.000149
v 1.000000 0.763610 -0.998564
v 1.000000 1.762581 0.000173
v 1.000000 0.763610 -0.998564
v 1.000000 1.762581 0.000173
v 0.001245 1.762630 1.000000
v 0.001139 0.763610 1.000000
v 0.000575 0.763610 0.000149
v 1.000000 1.762685 1.000000
vn -0.0002 1.0000 -0.0003
vn -0.7069 0.0005 -0.7074
vn -0.0008 0.7070 -0.7072
vn -0.0000 -0.0000 1.0000
vn -0.0000 -1.0000 -0.0000
vn 1.0000 -0.0000 -0.0000
vn -1.0000 -0.0000 0.0006
vt 0.952174 0.904704
vt 0.952730 0.952730
vt 0.000000 0.000000
vt 0.952592 0.000000
vt 0.999940 0.952403
vt 0.047419 0.000000
vt 1.000000 0.000000
vt 0.952730 0.000000
vt 0.952403 0.952403
vt 0.375000 0.874858
vt 0.375000 0.750000
vt 0.499884 0.750000
vt 0.499878 0.874844
vt 0.250142 0.750000
vt 0.250072 0.625019
vt 0.375000 0.500180
vt 0.375008 0.500180
vt 0.499871 0.625022
vt 0.952582 0.000000
vt 0.952480 0.952183
vt 0.047408 0.000000
s 0
usemtl Material
f 14/1/1 10/2/1 2/3/1 11/4/1
f 9/5/2 13/6/2 2/7/2
f 2/3/3 10/8/3 9/9/3
f 12/10/4 1/11/4 3/12/4 4/13/4
f 1/11/5 12/14/5 6/15/5 7/16/5
f 3/12/6 1/11/6 7/17/6 8/18/6
f 2/3/7 13/19/7 5/20/7 11/21/7
o Cube_cell.001
v 1.000000 2.763610 1.000000
v 0.000700 1.764929 0.001314
v 1.000000 1.764888 0.000794
v 1.000000 2.763610 0.000746
v 0.001004 2.763610 0.001287
v 0.001064 1.764703 1.000000
v 1.000000 1.764382 1.000000
v 0.001152 2.763610 1.000000
v 1.000000 1.764888 0.000794
v 1.000000 2.763610 0.000746
v 0.001004 2.763610 0.001287
v 0.001064 1.764703 1.000000
v 1.000000 1.764382 1.000000
v 0.001152 2.763610 1.000000
vn -1.0000 0.0002 0.0003
vn -0.0002 -1.0000 -0.0004
vn -0.0000 1.0000 -0.0000
vn -0.0000 -0.0000 1.0000
vn 1.0000 -0.0000 -0.0000
vn -0.0005 -0.0000 -1.0000
vt 0.047866 0.047794
vt 1.000000 0.047772
vt 1.000000 1.000000
vt 0.047235 0.047235
vt 0.000000 0.000000
vt 0.952779 0.000000
vt 0.952767 0.952585
vt 0.047235 0.000000
vt 0.749874 0.625161
vt 0.749856 0.750000
vt 0.625000 0.750000
vt 0.625000 0.625093
vt 0.500096 0.750000
vt 0.625000 0.874856
vt 0.500137 0.874867
vt 0.500160 0.625099
vt 0.952228 0.000000
vt 0.952569 0.952164
vt 0.047221 0.000000
s 0
usemtl Material
f 28/22/8 25/23/8 16/24/8 26/25/8
f 16/26/9 23/27/9 27/28/9 26/29/9
f 19/30/10 22/31/10 15/32/10 24/33/10
f 21/34/11 15/32/11 22/35/11 20/36/11
f 17/37/12 24/33/12 15/32/12 21/34/12
f 16/26/13 25/38/13 18/39/13 23/40/13
o Cube_cell.002
v -1.000000 2.763610 1.000000
v -0.001216 1.764568 0.000605
v -0.000727 2.763610 0.050274
v -0.000972 2.763610 1.000000
v -0.000694 1.814216 1.000000
v -1.000000 1.764224 1.000000
v -0.000717 1.764529 1.000000
v -0.000752 2.763610 0.000648
v -1.000000 2.763459 -0.998253
v -1.000000 1.764388 0.000451
v -0.000727 2.763610 0.050274
v -0.000972 2.763610 1.000000
v -0.000694 1.814216 1.000000
v -0.000752 2.763610 0.000648
v -1.000000 2.763459 -0.998253
v -1.000000 1.764224 1.000000
v -0.000717 1.764529 1.000000
v -1.000000 1.764388 0.000451
vn 1.0000 0.0003 0.0003
vn 1.0000 -0.0005 -0.0005
vn 0.7070 -0.0003 -0.7072
vn 0.0002 -0.7070 -0.7072
vn -0.0001 1.0000 -0.0001
vn -0.0000 -0.0000 1.0000
vn -1.0000 -0.0000 -0.0000
vn 0.0002 -1.0000 -0.0001
vt 0.952696 0.000000
vt 0.952037 0.904536
vt 0.047382 0.000000
vt 1.000000 0.952618
vt 0.952620 0.952620
vt 0.000000 0.000000
vt 0.952694 0.000000
vt 1.000000 0.047304
vt 0.952465 0.000145
vt 0.952694 0.952694
vt 0.952321 0.952321
vt 0.952191 0.000000
vt 0.875000 0.500218
vt 0.875000 0.750000
vt 0.750122 0.750000
vt 0.750091 0.631284
vt 0.750094 0.625081
vt 0.500115 0.875090
vt 0.506326 0.875087
vt 0.625000 0.875121
vt 0.625000 1.000000
vt 0.500077 1.000000
vt 0.500077 0.000000
vt 0.625000 0.000000
vt 0.624981 0.249782
vt 0.500097 0.124944
vt 0.952191 0.952191
vt 1.000000 0.000000
vt 1.000000 0.952620
vt 0.047461 0.000207
s 0
usemtl Material
f 39/41/14 40/42/14 41/43/14
f 41/44/15 45/45/15 30/46/15 42/47/15 39/48/15
f 43/49/16 42/50/16 30/46/16
f 43/51/17 30/46/17 46/52/17
f 37/53/18 29/54/18 32/55/18 31/56/18 36/57/18
f 35/58/19 33/59/19 32/60/19 29/61/19 44/62/19
f 44/63/20 29/64/20 37/65/20 38/66/20
f 46/67/21 30/68/21 45/69/21 34/70/21
o Cube_cell.003
v -1.000000 0.763610 -1.000000
v -0.001208 1.763228 -0.001440
v -0.000720 0.763610 -0.000763
v -1.000000 1.713933 -0.000759
v -1.000000 1.763476 -0.000793
v -0.050736 0.763610 -0.000731
v -1.000000 0.763610 -0.001351
v -1.000000 2.761672 -0.999455
v 0.998963 0.763610 -1.000000
v -1.000000 1.713933 -0.000759
v -1.000000 1.763476 -0.000793
v -0.000720 0.763610 -0.000763
v -0.050736 0.763610 -0.000731
v -1.000000 0.763610 -0.001351
v -1.000000 2.761672 -0.999455
v 0.998963 0.763610 -1.000000
vn 0.7069 0.0008 0.7073
vn 0.0006 0.0007 1.0000
vn -0.0007 -0.0006 1.0000
vn 0.7069 0.7073 0.0001
vn 0.0006 0.7073 0.7069
vn -1.0000 -0.0000 -0.0000
vn -0.0000 -1.0000 -0.0000
vn -0.0000 0.0003 -1.0000
vt 1.000000 0.000000
vt 1.000000 0.952276
vt 0.047643 0.000000
vt 0.000000 0.000000
vt 0.952780 0.000000
vt 1.000000 0.047197
vt 1.000000 0.952288
vt 0.952276 0.952276
vt 0.952288 0.952288
vt 0.047197 0.047197
vt 0.952746 0.047258
vt 0.047762 0.000000
vt 0.999879 0.952478
vt 0.047763 0.047763
vt 1.000000 0.047220
vt 1.000000 1.000000
vt 0.624758 0.250000
vt 0.375000 0.250000
vt 0.375000 0.125169
vt 0.493790 0.125095
vt 0.499983 0.125099
vt 0.125000 0.500000
vt 0.374870 0.500032
vt 0.249910 0.624905
vt 0.243658 0.624909
vt 0.125000 0.624831
vt 0.375000 0.499870
s 0
usemtl Material
f 48/71/22 58/72/22 55/73/22
f 48/74/23 57/75/23 56/76/23 59/77/23 58/78/23
f 59/79/24 56/80/24 60/81/24
f 61/82/25 48/71/25 55/83/25
f 61/84/26 57/85/26 48/86/26
f 54/87/27 47/88/27 53/89/27 50/90/27 51/91/27
f 47/92/28 62/93/28 49/94/28 52/95/28 53/96/28
f 62/97/29 47/88/29 54/87/29
o Cube_cell.004
v -0.001189 1.762112 0.001249
v -1.000000 0.763610 1.000000
v -1.000000 0.763610 0.000555
v -1.000000 1.762872 0.000883
v -0.000942 0.763610 0.000970
v -0.000890 1.762422 1.000000
v -0.001030 0.763610 1.000000
v -1.000000 1.762279 1.000000
v -0.050441 1.762459 1.000000
v -1.000000 1.762888 0.050723
v -1.000000 0.763610 0.000555
v -1.000000 1.762872 0.000883
v -0.000942 0.763610 0.000970
v -0.001030 0.763610 1.000000
v -0.000890 1.762422 1.000000
v -1.000000 1.762279 1.000000
v -0.050441 1.762459 1.000000
v -1.000000 1.762888 0.050723
vn 1.0000 0.0001 -0.0001
vn -0.0002 1.0000 0.0006
vn 0.0008 1.0000 -0.0003
vn -0.0000 -0.0000 1.0000
vn -1.0000 -0.0000 -0.0000
vn -0.0000 -1.0000 -0.0000
vn 0.0004 0.0003 -1.0000
vt 0.952732 0.000000
vt 0.951900 0.047498
vt 0.951859 0.951859
vt 0.000000 0.000000
vt 0.047251 0.000000
vt 0.952457 0.000000
vt 0.952339 0.904616
vt 1.000000 0.000000
vt 1.000000 0.952443
vt 0.952457 0.952457
vt 0.047251 0.047251
vt 0.047268 0.000000
vt 0.499834 1.000000
vt 0.375000 1.000000
vt 0.375000 0.875129
vt 0.499851 0.875111
vt 0.499856 0.881305
vt 0.499908 0.124890
vt 0.375000 0.124931
vt 0.375000 0.000000
vt 0.499834 0.000000
vt 0.499910 0.118660
vt 0.249871 0.750000
vt 0.125000 0.750000
vt 0.125000 0.625069
vt 0.249882 0.625121
vt 0.951859 0.000000
vt 0.999904 0.951960
vt 0.047557 0.000000
s 0
usemtl Material
f 77/98/30 76/99/30 75/100/30 63/101/30
f 79/102/31 80/103/31 78/104/31
f 63/105/32 66/106/32 80/107/32 79/108/32 77/109/32
f 70/110/33 64/111/33 69/112/33 68/113/33 71/114/33
f 74/115/34 73/116/34 64/117/34 70/118/34 72/119/34
f 69/120/35 64/121/35 73/122/35 67/123/35
f 75/124/36 65/125/36 66/126/36 63/101/36
o Cube_cell.005
v 1.000000 2.763610 -1.000000
v 0.001413 1.764318 -0.001135
v 1.000000 2.763610 -0.001436
v 0.000781 2.763610 -0.001174
v -0.998416 2.763610 -0.999897
v 1.000000 1.764305 -0.001290
v 0.999535 0.765131 -1.000000
v 1.000000 1.764305 -0.001290
v 0.999535 0.765131 -1.000000
v -0.998416 2.763610 -0.999897
v 0.000781 2.763610 -0.001174
v 1.000000 2.763610 -0.001436
vn -0.7069 -0.0004 0.7073
vn 0.0001 -0.7069 0.7073
vn -0.7072 -0.7070 0.0006
vn -0.0000 1.0000 -0.0000
vn 1.0000 -0.0002 -0.0002
vn -0.0001 -0.0000 -1.0000
vn 0.0002 0.0001 1.0000
vt 1.000000 0.000000
vt 1.000000 0.952257
vt 0.047458 0.000000
vt 0.952739 0.000444
vt 0.951945 0.951945
vt 0.000000 0.000000
vt 0.952641 0.000049
vt 0.952295 0.952295
vt 0.625000 0.624821
vt 0.625000 0.500000
vt 0.874802 0.500013
vt 0.749902 0.624853
vt 0.375190 0.500000
vt 0.625000 0.624821
vt 0.500087 0.624839
vt 0.625000 0.250198
vt 0.375190 0.499942
vt 0.951945 0.000000
vt 0.951935 0.904150
vt 0.952257 0.952257
s 0
usemtl Material
f 82/127/37 91/128/37 85/129/37
f 89/130/38 88/131/38 82/132/38
f 82/132/39 85/133/39 89/134/39
f 92/135/40 81/136/40 90/137/40 84/138/40
f 87/139/41 81/136/41 92/140/41 86/141/41
f 90/142/42 81/136/42 87/143/42
f 82/132/43 88/144/43 83/145/43 91/146/43
